<?xml version="1.0" standalone="no"?>
<!DOCTYPE svg PUBLIC "-//W3C//DTD SVG 20010904//EN"
 "http://www.w3.org/TR/2001/REC-SVG-20010904/DTD/svg10.dtd">
<svg version="1.0" xmlns="http://www.w3.org/2000/svg"
 width="1600.000000pt" height="1600.000000pt" viewBox="0 0 1600.000000 1600.000000"
 preserveAspectRatio="xMidYMid meet">
<metadata>
Created by potrace 1.11, written by Peter Selinger 2001-2013
</metadata>
<g transform="translate(0.000000,1600.000000) scale(0.100000,-0.100000)"
fill="#000000" stroke="none">
<path d="M7709 15136 c-2 -2 -65 -7 -139 -10 -74 -4 -153 -9 -175 -11 -22 -2
-67 -7 -100 -10 -87 -8 -137 -14 -260 -31 -131 -17 -160 -22 -255 -38 -19 -3
-46 -8 -60 -10 -46 -8 -285 -57 -320 -66 -19 -5 -46 -11 -60 -13 -14 -3 -79
-19 -145 -37 -432 -115 -862 -271 -1242 -451 -57 -27 -106 -50 -110 -51 -5 -1
-87 -45 -183 -96 -415 -223 -773 -458 -1120 -738 -172 -138 -181 -146 -294
-247 -153 -136 -339 -319 -475 -466 -53 -58 -103 -112 -111 -120 -36 -38 -240
-284 -290 -350 -30 -40 -60 -78 -65 -84 -87 -99 -461 -666 -518 -787 -4 -8
-26 -46 -48 -85 -65 -115 -243 -480 -304 -625 -31 -74 -64 -150 -72 -169 -8
-18 -19 -45 -23 -60 -5 -14 -21 -57 -35 -96 -40 -103 -130 -374 -169 -511 -80
-274 -179 -736 -201 -940 -3 -27 -8 -56 -10 -64 -2 -8 -7 -42 -10 -75 -4 -33
-8 -71 -11 -85 -2 -14 -6 -59 -9 -100 -4 -41 -8 -86 -10 -99 -26 -157 -26
-939 0 -1211 1 -19 6 -67 9 -106 4 -39 8 -81 11 -92 2 -12 6 -47 9 -79 4 -32
8 -74 11 -93 2 -19 7 -55 10 -80 3 -25 8 -52 10 -60 3 -8 7 -31 9 -50 4 -31
24 -144 41 -235 4 -16 11 -50 16 -75 6 -25 13 -56 15 -70 3 -14 17 -72 30
-130 14 -58 27 -112 29 -120 19 -82 115 -399 160 -530 52 -151 182 -486 204
-528 6 -9 29 -60 52 -112 60 -136 223 -454 309 -600 40 -69 78 -134 84 -145
14 -24 26 -43 135 -210 195 -299 467 -651 668 -865 23 -25 51 -56 63 -70 57
-66 293 -301 456 -451 295 -272 750 -608 1134 -837 448 -267 960 -499 1450
-657 318 -103 763 -210 1030 -250 14 -2 54 -8 90 -14 77 -12 124 -18 205 -27
33 -3 68 -8 77 -9 33 -7 152 -17 343 -32 140 -10 778 -10 910 0 242 19 310 26
405 38 41 6 95 12 120 15 25 3 68 9 95 14 28 5 68 12 90 15 43 6 97 15 130 22
11 2 32 6 46 8 21 3 214 45 369 80 32 8 209 56 275 75 39 11 77 22 85 24 75
20 339 111 482 166 394 152 721 310 1080 523 76 45 146 87 155 92 113 64 710
492 733 525 3 4 39 35 80 70 330 275 698 651 960 980 19 24 46 58 60 75 128
152 415 574 535 783 6 9 26 44 45 77 173 297 378 738 505 1085 92 253 225 694
249 827 2 15 14 71 26 123 21 92 24 105 34 160 4 26 16 91 22 125 10 51 25
150 30 193 3 26 7 54 9 62 2 8 7 42 10 75 4 33 8 67 10 75 2 8 7 53 10 100 4
47 9 99 11 115 26 199 26 958 0 1205 -2 19 -7 69 -10 110 -4 41 -8 89 -11 105
-2 17 -7 48 -9 70 -3 22 -7 56 -10 75 -3 19 -10 71 -17 115 -6 44 -13 89 -15
100 -2 10 -6 35 -9 55 -3 20 -8 47 -10 60 -3 14 -8 39 -11 55 -27 153 -95 434
-150 629 -160 559 -409 1139 -703 1636 -31 52 -58 100 -61 105 -3 6 -12 21
-21 35 -9 14 -55 84 -102 157 -79 122 -229 334 -302 428 -53 68 -150 190 -155
195 -3 3 -29 34 -59 70 -143 173 -497 545 -627 657 -12 10 -53 47 -93 82 -128
115 -326 276 -461 377 -632 471 -1337 838 -2060 1072 -258 84 -501 148 -760
202 -140 29 -136 29 -205 40 -33 5 -69 12 -80 14 -22 4 -97 16 -135 21 -14 2
-43 6 -65 9 -45 6 -94 12 -175 21 -30 4 -66 8 -80 10 -14 2 -68 7 -120 11 -52
3 -113 8 -135 11 -52 5 -751 13 -756 9z m-3165 -5367 c68 -23 155 -70 201
-109 253 -212 434 -582 643 -1312 l59 -203 721 -3 721 -2 20 67 c11 38 34 118
51 178 122 427 276 820 384 978 14 21 26 40 26 44 0 12 130 170 171 208 130
121 287 186 449 186 115 1 190 -16 285 -63 273 -135 477 -462 680 -1088 31
-96 58 -182 60 -190 2 -8 13 -49 25 -90 12 -41 30 -106 40 -144 10 -38 23 -73
27 -77 5 -5 328 -8 728 -7 l718 3 14 50 c7 28 20 70 27 95 7 25 21 74 31 110
28 101 159 496 194 583 106 266 239 489 368 616 127 125 289 199 443 201 105
2 157 -18 217 -83 68 -74 88 -186 49 -278 -33 -79 -129 -146 -219 -153 -98 -9
-165 -70 -255 -235 -29 -51 -52 -95 -52 -97 0 -2 -11 -27 -24 -56 -35 -79
-129 -338 -166 -458 -17 -58 -42 -139 -55 -180 -13 -41 -26 -85 -30 -97 l-6
-23 658 0 c640 0 659 -1 703 -21 55 -25 105 -71 133 -124 33 -62 30 -175 -6
-236 -33 -56 -59 -80 -117 -111 l-45 -23 -728 -1 c-445 -1 -732 -5 -737 -10
-6 -6 -19 -46 -31 -89 -31 -122 -94 -333 -151 -505 -218 -668 -468 -1011 -793
-1086 -49 -11 -80 -14 -140 -14 -38 0 -79 1 -90 3 -39 8 -95 18 -100 18 -14 0
-124 54 -170 84 -81 51 -195 172 -268 282 -69 105 -174 314 -227 453 -17 47
-36 94 -40 105 -16 37 -68 199 -120 370 -49 164 -60 204 -95 328 -13 47 -19
57 -38 58 -85 3 -1398 1 -1400 -2 -2 -2 -27 -89 -57 -194 -71 -253 -170 -562
-200 -630 -5 -11 -23 -56 -40 -100 -77 -197 -223 -441 -334 -556 -204 -214
-488 -277 -744 -168 -262 112 -479 442 -671 1017 -54 161 -140 441 -157 511
-2 9 -8 36 -14 61 -6 25 -15 49 -20 54 -5 5 -332 9 -737 10 l-728 1 -48 24
c-94 46 -148 141 -142 249 5 98 62 179 155 221 44 20 63 21 702 21 l656 0 -13
48 c-33 117 -115 379 -145 460 -11 28 -29 78 -41 110 -27 73 -29 77 -87 203
-104 222 -186 315 -287 323 -59 5 -99 19 -137 46 -74 54 -109 118 -113 204 -4
132 85 242 218 264 55 10 164 -3 241 -29z"/>
<path d="M7973 9280 c-125 -28 -263 -269 -416 -725 -56 -169 -128 -408 -123
-412 1 -2 257 -2 568 -1 l565 3 -29 95 c-85 279 -162 504 -204 598 -13 29 -24
55 -24 57 0 11 -98 202 -121 235 -79 116 -149 165 -216 150z"/>
<path d="M5622 7622 c-28 -3 -32 -6 -26 -24 12 -38 46 -153 54 -183 20 -74
126 -395 150 -450 4 -11 25 -60 45 -110 130 -318 262 -460 376 -404 143 71
285 366 474 986 28 95 49 176 46 180 -6 7 -1045 12 -1119 5z"/>
<path d="M9283 7622 c-18 -2 -33 -6 -33 -9 0 -13 112 -377 149 -485 158 -456
301 -690 424 -690 66 0 131 53 203 164 41 62 109 203 148 303 15 39 31 79 36
90 20 45 142 420 155 475 2 8 13 44 24 80 11 35 18 66 16 68 -5 5 -1075 8
-1122 4z"/>
</g>
</svg>
